# Tiled2Unity generated file. Do not modify by hand.
# Wavefront file for 'UnderGroundLvl2_mesh_0002.obj'

# Vertices (Count = 156)
v -45 -87 0
v -46 -87 0
v -46 -86 0
v -45 -86 0
v -13 -86 0
v -14 -86 0
v -14 -85 0
v -13 -85 0
v -61 -78 0
v -62 -78 0
v -62 -77 0
v -61 -77 0
v -18 -77 0
v -19 -77 0
v -19 -76 0
v -18 -76 0
v -40 -77 0
v -41 -77 0
v -41 -76 0
v -40 -76 0
v -90 -77 0
v -91 -77 0
v -91 -76 0
v -90 -76 0
v -29 -76 0
v -30 -76 0
v -30 -75 0
v -29 -75 0
v -23 -74 0
v -24 -74 0
v -24 -73 0
v -23 -73 0
v -43 -73 0
v -44 -73 0
v -44 -72 0
v -43 -72 0
v -12 -72 0
v -13 -72 0
v -13 -71 0
v -12 -71 0
v -15 -67 0
v -16 -67 0
v -16 -66 0
v -15 -66 0
v -23 -66 0
v -24 -66 0
v -24 -65 0
v -23 -65 0
v -72 -66 0
v -73 -66 0
v -73 -65 0
v -72 -65 0
v -54 -64 0
v -55 -64 0
v -55 -63 0
v -54 -63 0
v -47 -63 0
v -48 -63 0
v -48 -62 0
v -47 -62 0
v -91 -62 0
v -92 -62 0
v -92 -61 0
v -91 -61 0
v -66 -58 0
v -67 -58 0
v -67 -57 0
v -66 -57 0
v -33 -55 0
v -34 -55 0
v -34 -54 0
v -33 -54 0
v -50 -55 0
v -51 -55 0
v -51 -54 0
v -50 -54 0
v -80 -54 0
v -81 -54 0
v -81 -53 0
v -80 -53 0
v -39 -48 0
v -40 -48 0
v -40 -47 0
v -39 -47 0
v -58 -47 0
v -59 -47 0
v -59 -46 0
v -58 -46 0
v -45 -45 0
v -46 -45 0
v -46 -44 0
v -45 -44 0
v -59 -40 0
v -60 -40 0
v -60 -39 0
v -59 -39 0
v -88 -40 0
v -89 -40 0
v -89 -39 0
v -88 -39 0
v -89 -40 0
v -90 -40 0
v -90 -39 0
v -89 -39 0
v -67 -39 0
v -68 -39 0
v -68 -38 0
v -67 -38 0
v -37 -35 0
v -38 -35 0
v -38 -34 0
v -37 -34 0
v -50 -33 0
v -51 -33 0
v -51 -32 0
v -50 -32 0
v -94 -29 0
v -95 -29 0
v -95 -28 0
v -94 -28 0
v -35 -28 0
v -36 -28 0
v -36 -27 0
v -35 -27 0
v -79 -28 0
v -80 -28 0
v -80 -27 0
v -79 -27 0
v -67 -22 0
v -68 -22 0
v -68 -21 0
v -67 -21 0
v -63 -19 0
v -64 -19 0
v -64 -18 0
v -63 -18 0
v -62 -14 0
v -63 -14 0
v -63 -13 0
v -62 -13 0
v -56 -10 0
v -57 -10 0
v -57 -9 0
v -56 -9 0
v -83 -9 0
v -84 -9 0
v -84 -8 0
v -83 -8 0
v -43 -7 0
v -44 -7 0
v -44 -6 0
v -43 -6 0
v -75 -3 0
v -76 -3 0
v -76 -2 0
v -75 -2 0

# Texture cooridinates (Count = 8)
vt 0.125 0
vt 0.25 0
vt 0.25 0.2
vt 0.125 0.2
vt 0.5 0.4
vt 0.625 0.4
vt 0.625 0.6
vt 0.5 0.6

# Normal
vn 0 0 -1

# Mesh description
g UnderGroundLvl2_mesh_0002

# Faces
f 1/1/1 2/2/1 3/3/1 4/4/1
f 5/1/1 6/2/1 7/3/1 8/4/1
f 9/1/1 10/2/1 11/3/1 12/4/1
f 13/1/1 14/2/1 15/3/1 16/4/1
f 17/5/1 18/6/1 19/7/1 20/8/1
f 21/1/1 22/2/1 23/3/1 24/4/1
f 25/1/1 26/2/1 27/3/1 28/4/1
f 29/1/1 30/2/1 31/3/1 32/4/1
f 33/1/1 34/2/1 35/3/1 36/4/1
f 37/1/1 38/2/1 39/3/1 40/4/1
f 41/5/1 42/6/1 43/7/1 44/8/1
f 45/1/1 46/2/1 47/3/1 48/4/1
f 49/1/1 50/2/1 51/3/1 52/4/1
f 53/1/1 54/2/1 55/3/1 56/4/1
f 57/1/1 58/2/1 59/3/1 60/4/1
f 61/1/1 62/2/1 63/3/1 64/4/1
f 65/1/1 66/2/1 67/3/1 68/4/1
f 69/1/1 70/2/1 71/3/1 72/4/1
f 73/5/1 74/6/1 75/7/1 76/8/1
f 77/1/1 78/2/1 79/3/1 80/4/1
f 81/1/1 82/2/1 83/3/1 84/4/1
f 85/1/1 86/2/1 87/3/1 88/4/1
f 89/5/1 90/6/1 91/7/1 92/8/1
f 93/1/1 94/2/1 95/3/1 96/4/1
f 97/1/1 98/2/1 99/3/1 100/4/1
f 101/1/1 102/2/1 103/3/1 104/4/1
f 105/1/1 106/2/1 107/3/1 108/4/1
f 109/5/1 110/6/1 111/7/1 112/8/1
f 113/1/1 114/2/1 115/3/1 116/4/1
f 117/1/1 118/2/1 119/3/1 120/4/1
f 121/1/1 122/2/1 123/3/1 124/4/1
f 125/1/1 126/2/1 127/3/1 128/4/1
f 129/5/1 130/6/1 131/7/1 132/8/1
f 133/1/1 134/2/1 135/3/1 136/4/1
f 137/5/1 138/6/1 139/7/1 140/8/1
f 141/1/1 142/2/1 143/3/1 144/4/1
f 145/1/1 146/2/1 147/3/1 148/4/1
f 149/1/1 150/2/1 151/3/1 152/4/1
f 153/1/1 154/2/1 155/3/1 156/4/1

