# Tiled2Unity generated file. Do not modify by hand.
# Wavefront file for 'UnderGroundLvl1._mesh_0005.obj'

# Vertices (Count = 12)
v -28 -44 0
v -29 -44 0
v -29 -43 0
v -28 -43 0
v -14 -34 0
v -15 -34 0
v -15 -33 0
v -14 -33 0
v -42 -19 0
v -43 -19 0
v -43 -18 0
v -42 -18 0

# Texture cooridinates (Count = 4)
vt 0.8235294 0.375
vt 0.8823529 0.375
vt 0.8823529 0.5
vt 0.8235294 0.5

# Normal
vn 0 0 -1

# Mesh description
g UnderGroundLvl1._mesh_0005

# Faces
f 1/1/1 2/2/1 3/3/1 4/4/1
f 5/1/1 6/2/1 7/3/1 8/4/1
f 9/1/1 10/2/1 11/3/1 12/4/1

