# Tiled2Unity generated file. Do not modify by hand.
# Wavefront file for 'UnderGroundLvl3_mesh_0004.obj'

# Vertices (Count = 528)
v -20 -60 0
v -21 -60 0
v -21 -59 0
v -20 -59 0
v -20 -59 0
v -21 -59 0
v -21 -58 0
v -20 -58 0
v -21 -59 0
v -22 -59 0
v -22 -58 0
v -21 -58 0
v -22 -59 0
v -23 -59 0
v -23 -58 0
v -22 -58 0
v -23 -59 0
v -24 -59 0
v -24 -58 0
v -23 -58 0
v -24 -59 0
v -25 -59 0
v -25 -58 0
v -24 -58 0
v -25 -59 0
v -26 -59 0
v -26 -58 0
v -25 -58 0
v -26 -59 0
v -27 -59 0
v -27 -58 0
v -26 -58 0
v -27 -59 0
v -28 -59 0
v -28 -58 0
v -27 -58 0
v -28 -59 0
v -29 -59 0
v -29 -58 0
v -28 -58 0
v -29 -59 0
v -30 -59 0
v -30 -58 0
v -29 -58 0
v -30 -59 0
v -31 -59 0
v -31 -58 0
v -30 -58 0
v -31 -59 0
v -32 -59 0
v -32 -58 0
v -31 -58 0
v -32 -59 0
v -33 -59 0
v -33 -58 0
v -32 -58 0
v -33 -59 0
v -34 -59 0
v -34 -58 0
v -33 -58 0
v -34 -59 0
v -35 -59 0
v -35 -58 0
v -34 -58 0
v -35 -59 0
v -36 -59 0
v -36 -58 0
v -35 -58 0
v -36 -59 0
v -37 -59 0
v -37 -58 0
v -36 -58 0
v -37 -59 0
v -38 -59 0
v -38 -58 0
v -37 -58 0
v -38 -59 0
v -39 -59 0
v -39 -58 0
v -38 -58 0
v -39 -59 0
v -40 -59 0
v -40 -58 0
v -39 -58 0
v -40 -59 0
v -41 -59 0
v -41 -58 0
v -40 -58 0
v -41 -59 0
v -42 -59 0
v -42 -58 0
v -41 -58 0
v -42 -59 0
v -43 -59 0
v -43 -58 0
v -42 -58 0
v -26 -56 0
v -27 -56 0
v -27 -55 0
v -26 -55 0
v -27 -56 0
v -28 -56 0
v -28 -55 0
v -27 -55 0
v -28 -56 0
v -29 -56 0
v -29 -55 0
v -28 -55 0
v -29 -56 0
v -30 -56 0
v -30 -55 0
v -29 -55 0
v -30 -56 0
v -31 -56 0
v -31 -55 0
v -30 -55 0
v -31 -56 0
v -32 -56 0
v -32 -55 0
v -31 -55 0
v -36 -56 0
v -37 -56 0
v -37 -55 0
v -36 -55 0
v -37 -56 0
v -38 -56 0
v -38 -55 0
v -37 -55 0
v -38 -56 0
v -39 -56 0
v -39 -55 0
v -38 -55 0
v -39 -56 0
v -40 -56 0
v -40 -55 0
v -39 -55 0
v -40 -56 0
v -41 -56 0
v -41 -55 0
v -40 -55 0
v -41 -56 0
v -42 -56 0
v -42 -55 0
v -41 -55 0
v -42 -56 0
v -43 -56 0
v -43 -55 0
v -42 -55 0
v -30 -55 0
v -31 -55 0
v -31 -54 0
v -30 -54 0
v -31 -55 0
v -32 -55 0
v -32 -54 0
v -31 -54 0
v -36 -55 0
v -37 -55 0
v -37 -54 0
v -36 -54 0
v -30 -54 0
v -31 -54 0
v -31 -53 0
v -30 -53 0
v -31 -54 0
v -32 -54 0
v -32 -53 0
v -31 -53 0
v -36 -54 0
v -37 -54 0
v -37 -53 0
v -36 -53 0
v -30 -53 0
v -31 -53 0
v -31 -52 0
v -30 -52 0
v -31 -53 0
v -32 -53 0
v -32 -52 0
v -31 -52 0
v -36 -53 0
v -37 -53 0
v -37 -52 0
v -36 -52 0
v -30 -52 0
v -31 -52 0
v -31 -51 0
v -30 -51 0
v -31 -52 0
v -32 -52 0
v -32 -51 0
v -31 -51 0
v -36 -52 0
v -37 -52 0
v -37 -51 0
v -36 -51 0
v -30 -51 0
v -31 -51 0
v -31 -50 0
v -30 -50 0
v -31 -51 0
v -32 -51 0
v -32 -50 0
v -31 -50 0
v -36 -51 0
v -37 -51 0
v -37 -50 0
v -36 -50 0
v -30 -50 0
v -31 -50 0
v -31 -49 0
v -30 -49 0
v -31 -50 0
v -32 -50 0
v -32 -49 0
v -31 -49 0
v -36 -50 0
v -37 -50 0
v -37 -49 0
v -36 -49 0
v -30 -49 0
v -31 -49 0
v -31 -48 0
v -30 -48 0
v -31 -49 0
v -32 -49 0
v -32 -48 0
v -31 -48 0
v -36 -49 0
v -37 -49 0
v -37 -48 0
v -36 -48 0
v -30 -48 0
v -31 -48 0
v -31 -47 0
v -30 -47 0
v -31 -48 0
v -32 -48 0
v -32 -47 0
v -31 -47 0
v -36 -48 0
v -37 -48 0
v -37 -47 0
v -36 -47 0
v -30 -47 0
v -31 -47 0
v -31 -46 0
v -30 -46 0
v -31 -47 0
v -32 -47 0
v -32 -46 0
v -31 -46 0
v -36 -47 0
v -37 -47 0
v -37 -46 0
v -36 -46 0
v -30 -46 0
v -31 -46 0
v -31 -45 0
v -30 -45 0
v -31 -46 0
v -32 -46 0
v -32 -45 0
v -31 -45 0
v -36 -46 0
v -37 -46 0
v -37 -45 0
v -36 -45 0
v -37 -46 0
v -38 -46 0
v -38 -45 0
v -37 -45 0
v -40 -44 0
v -41 -44 0
v -41 -43 0
v -40 -43 0
v -44 -43 0
v -45 -43 0
v -45 -42 0
v -44 -42 0
v -47 -41 0
v -48 -41 0
v -48 -40 0
v -47 -40 0
v 0 -40 0
v -1 -40 0
v -1 -39 0
v 0 -39 0
v -1 -40 0
v -2 -40 0
v -2 -39 0
v -1 -39 0
v -2 -40 0
v -3 -40 0
v -3 -39 0
v -2 -39 0
v -3 -40 0
v -4 -40 0
v -4 -39 0
v -3 -39 0
v -4 -40 0
v -5 -40 0
v -5 -39 0
v -4 -39 0
v -5 -40 0
v -6 -40 0
v -6 -39 0
v -5 -39 0
v -6 -40 0
v -7 -40 0
v -7 -39 0
v -6 -39 0
v -7 -40 0
v -8 -40 0
v -8 -39 0
v -7 -39 0
v -8 -40 0
v -9 -40 0
v -9 -39 0
v -8 -39 0
v -9 -40 0
v -10 -40 0
v -10 -39 0
v -9 -39 0
v -10 -40 0
v -11 -40 0
v -11 -39 0
v -10 -39 0
v -11 -40 0
v -12 -40 0
v -12 -39 0
v -11 -39 0
v -12 -40 0
v -13 -40 0
v -13 -39 0
v -12 -39 0
v -13 -40 0
v -14 -40 0
v -14 -39 0
v -13 -39 0
v -14 -40 0
v -15 -40 0
v -15 -39 0
v -14 -39 0
v -15 -40 0
v -16 -40 0
v -16 -39 0
v -15 -39 0
v -16 -40 0
v -17 -40 0
v -17 -39 0
v -16 -39 0
v -17 -40 0
v -18 -40 0
v -18 -39 0
v -17 -39 0
v -18 -40 0
v -19 -40 0
v -19 -39 0
v -18 -39 0
v -19 -40 0
v -20 -40 0
v -20 -39 0
v -19 -39 0
v -26 -40 0
v -27 -40 0
v -27 -39 0
v -26 -39 0
v -27 -40 0
v -28 -40 0
v -28 -39 0
v -27 -39 0
v 0 -39 0
v -1 -39 0
v -1 -38 0
v 0 -38 0
v -5 -39 0
v -6 -39 0
v -6 -38 0
v -5 -38 0
v -12 -39 0
v -13 -39 0
v -13 -38 0
v -12 -38 0
v -27 -39 0
v -28 -39 0
v -28 -38 0
v -27 -38 0
v -50 -39 0
v -51 -39 0
v -51 -38 0
v -50 -38 0
v -51 -39 0
v -52 -39 0
v -52 -38 0
v -51 -38 0
v -52 -39 0
v -53 -39 0
v -53 -38 0
v -52 -38 0
v -53 -39 0
v -54 -39 0
v -54 -38 0
v -53 -38 0
v -54 -39 0
v -55 -39 0
v -55 -38 0
v -54 -38 0
v -55 -39 0
v -56 -39 0
v -56 -38 0
v -55 -38 0
v -56 -39 0
v -57 -39 0
v -57 -38 0
v -56 -38 0
v -57 -39 0
v -58 -39 0
v -58 -38 0
v -57 -38 0
v -58 -39 0
v -59 -39 0
v -59 -38 0
v -58 -38 0
v 0 -38 0
v -1 -38 0
v -1 -37 0
v 0 -37 0
v -28 -38 0
v -29 -38 0
v -29 -37 0
v -28 -37 0
v -29 -38 0
v -30 -38 0
v -30 -37 0
v -29 -37 0
v 0 -37 0
v -1 -37 0
v -1 -36 0
v 0 -36 0
v -28 -37 0
v -29 -37 0
v -29 -36 0
v -28 -36 0
v -30 -37 0
v -31 -37 0
v -31 -36 0
v -30 -36 0
v 0 -36 0
v -1 -36 0
v -1 -35 0
v 0 -35 0
v -31 -36 0
v -32 -36 0
v -32 -35 0
v -31 -35 0
v -32 -36 0
v -33 -36 0
v -33 -35 0
v -32 -35 0
v 0 -35 0
v -1 -35 0
v -1 -34 0
v 0 -34 0
v 0 -34 0
v -1 -34 0
v -1 -33 0
v 0 -33 0
v 0 -33 0
v -1 -33 0
v -1 -32 0
v 0 -32 0
v 0 -32 0
v -1 -32 0
v -1 -31 0
v 0 -31 0
v -29 -32 0
v -30 -32 0
v -30 -31 0
v -29 -31 0
v 0 -31 0
v -1 -31 0
v -1 -30 0
v 0 -30 0
v -29 -31 0
v -30 -31 0
v -30 -30 0
v -29 -30 0
v 0 -30 0
v -1 -30 0
v -1 -29 0
v 0 -29 0
v -29 -30 0
v -30 -30 0
v -30 -29 0
v -29 -29 0
v 0 -29 0
v -1 -29 0
v -1 -28 0
v 0 -28 0
v -29 -29 0
v -30 -29 0
v -30 -28 0
v -29 -28 0
v 0 -28 0
v -1 -28 0
v -1 -27 0
v 0 -27 0
v -29 -28 0
v -30 -28 0
v -30 -27 0
v -29 -27 0
v 0 -27 0
v -1 -27 0
v -1 -26 0
v 0 -26 0
v -1 -27 0
v -2 -27 0
v -2 -26 0
v -1 -26 0
v -2 -27 0
v -3 -27 0
v -3 -26 0
v -2 -26 0
v -29 -27 0
v -30 -27 0
v -30 -26 0
v -29 -26 0

# Texture cooridinates (Count = 29)
vt 0.375 0
vt 0.5 0
vt 0.5 0.2
vt 0.375 0.2
vt 0 0.4
vt 0.125 0.4
vt 0.125 0.6
vt 0 0.6
vt 0.25 0.4
vt 0.25 0.6
vt 0 0.8
vt 0.125 0.8
vt 0.125 1
vt 0 1
vt 0.25 0.8
vt 0.375 0.8
vt 0.375 1
vt 0.25 1
vt 0.5 0.8
vt 0.5 1
vt 0 0
vt 0.125 0
vt 0.125 0.2
vt 0 0.2
vt 0.5 0.4
vt 0.375 0.4
vt 0.25 0.2
vt 0.5 0.6
vt 0.375 0.6

# Normal
vn 0 0 -1

# Mesh description
g UnderGroundLvl3_mesh_0004

# Faces
f 1/1/1 2/2/1 3/3/1 4/4/1
f 5/1/1 6/2/1 7/3/1 8/4/1
f 9/5/1 10/6/1 11/7/1 12/8/1
f 13/6/1 14/9/1 15/10/1 16/7/1
f 17/5/1 18/6/1 19/7/1 20/8/1
f 21/6/1 22/9/1 23/10/1 24/7/1
f 25/5/1 26/6/1 27/7/1 28/8/1
f 29/6/1 30/9/1 31/10/1 32/7/1
f 33/5/1 34/6/1 35/7/1 36/8/1
f 37/6/1 38/9/1 39/10/1 40/7/1
f 41/5/1 42/6/1 43/7/1 44/8/1
f 45/6/1 46/9/1 47/10/1 48/7/1
f 49/5/1 50/6/1 51/7/1 52/8/1
f 53/6/1 54/9/1 55/10/1 56/7/1
f 57/5/1 58/6/1 59/7/1 60/8/1
f 61/6/1 62/9/1 63/10/1 64/7/1
f 65/5/1 66/6/1 67/7/1 68/8/1
f 69/6/1 70/9/1 71/10/1 72/7/1
f 73/5/1 74/6/1 75/7/1 76/8/1
f 77/6/1 78/9/1 79/10/1 80/7/1
f 81/5/1 82/6/1 83/7/1 84/8/1
f 85/6/1 86/9/1 87/10/1 88/7/1
f 89/5/1 90/6/1 91/7/1 92/8/1
f 93/6/1 94/9/1 95/10/1 96/7/1
f 97/11/1 98/12/1 99/13/1 100/14/1
f 101/15/1 102/16/1 103/17/1 104/18/1
f 105/15/1 106/16/1 107/17/1 108/18/1
f 109/15/1 110/16/1 111/17/1 112/18/1
f 113/15/1 114/16/1 115/17/1 116/18/1
f 117/16/1 118/19/1 119/20/1 120/17/1
f 121/11/1 122/12/1 123/13/1 124/14/1
f 125/12/1 126/15/1 127/18/1 128/13/1
f 129/12/1 130/15/1 131/18/1 132/13/1
f 133/12/1 134/15/1 135/18/1 136/13/1
f 137/12/1 138/15/1 139/18/1 140/13/1
f 141/12/1 142/15/1 143/18/1 144/13/1
f 145/16/1 146/19/1 147/20/1 148/17/1
f 149/21/1 150/22/1 151/23/1 152/24/1
f 153/1/1 154/2/1 155/3/1 156/4/1
f 157/21/1 158/22/1 159/23/1 160/24/1
f 161/21/1 162/22/1 163/23/1 164/24/1
f 165/1/1 166/2/1 167/3/1 168/4/1
f 169/21/1 170/22/1 171/23/1 172/24/1
f 173/21/1 174/22/1 175/23/1 176/24/1
f 177/1/1 178/2/1 179/3/1 180/4/1
f 181/21/1 182/22/1 183/23/1 184/24/1
f 185/21/1 186/22/1 187/23/1 188/24/1
f 189/1/1 190/2/1 191/3/1 192/4/1
f 193/21/1 194/22/1 195/23/1 196/24/1
f 197/21/1 198/22/1 199/23/1 200/24/1
f 201/1/1 202/2/1 203/3/1 204/4/1
f 205/21/1 206/22/1 207/23/1 208/24/1
f 209/21/1 210/22/1 211/23/1 212/24/1
f 213/1/1 214/2/1 215/3/1 216/4/1
f 217/21/1 218/22/1 219/23/1 220/24/1
f 221/21/1 222/22/1 223/23/1 224/24/1
f 225/1/1 226/2/1 227/3/1 228/4/1
f 229/21/1 230/22/1 231/23/1 232/24/1
f 233/21/1 234/22/1 235/23/1 236/24/1
f 237/1/1 238/2/1 239/3/1 240/4/1
f 241/21/1 242/22/1 243/23/1 244/24/1
f 245/21/1 246/22/1 247/23/1 248/24/1
f 249/1/1 250/2/1 251/3/1 252/4/1
f 253/21/1 254/22/1 255/23/1 256/24/1
f 257/24/1 258/23/1 259/6/1 260/5/1
f 261/4/1 262/3/1 263/25/1 264/26/1
f 265/24/1 266/23/1 267/6/1 268/5/1
f 269/23/1 270/27/1 271/9/1 272/6/1
f 273/23/1 274/27/1 275/9/1 276/6/1
f 277/23/1 278/27/1 279/9/1 280/6/1
f 281/23/1 282/27/1 283/9/1 284/6/1
f 285/4/1 286/3/1 287/25/1 288/26/1
f 289/27/1 290/4/1 291/26/1 292/9/1
f 293/27/1 294/4/1 295/26/1 296/9/1
f 297/27/1 298/4/1 299/26/1 300/9/1
f 301/27/1 302/4/1 303/26/1 304/9/1
f 305/27/1 306/4/1 307/26/1 308/9/1
f 309/27/1 310/4/1 311/26/1 312/9/1
f 313/27/1 314/4/1 315/26/1 316/9/1
f 317/27/1 318/4/1 319/26/1 320/9/1
f 321/27/1 322/4/1 323/26/1 324/9/1
f 325/27/1 326/4/1 327/26/1 328/9/1
f 329/27/1 330/4/1 331/26/1 332/9/1
f 333/27/1 334/4/1 335/26/1 336/9/1
f 337/27/1 338/4/1 339/26/1 340/9/1
f 341/27/1 342/4/1 343/26/1 344/9/1
f 345/27/1 346/4/1 347/26/1 348/9/1
f 349/27/1 350/4/1 351/26/1 352/9/1
f 353/27/1 354/4/1 355/26/1 356/9/1
f 357/27/1 358/4/1 359/26/1 360/9/1
f 361/4/1 362/3/1 363/25/1 364/26/1
f 365/24/1 366/23/1 367/6/1 368/5/1
f 369/23/1 370/27/1 371/9/1 372/6/1
f 373/1/1 374/2/1 375/3/1 376/4/1
f 377/26/1 378/25/1 379/28/1 380/29/1
f 381/26/1 382/25/1 383/28/1 384/29/1
f 385/24/1 386/23/1 387/6/1 388/5/1
f 389/24/1 390/23/1 391/6/1 392/5/1
f 393/23/1 394/27/1 395/9/1 396/6/1
f 397/23/1 398/27/1 399/9/1 400/6/1
f 401/23/1 402/27/1 403/9/1 404/6/1
f 405/23/1 406/27/1 407/9/1 408/6/1
f 409/23/1 410/27/1 411/9/1 412/6/1
f 413/23/1 414/27/1 415/9/1 416/6/1
f 417/23/1 418/27/1 419/9/1 420/6/1
f 421/4/1 422/3/1 423/25/1 424/26/1
f 425/1/1 426/2/1 427/3/1 428/4/1
f 429/24/1 430/23/1 431/6/1 432/5/1
f 433/23/1 434/27/1 435/9/1 436/6/1
f 437/1/1 438/2/1 439/3/1 440/4/1
f 441/26/1 442/25/1 443/28/1 444/29/1
f 445/24/1 446/23/1 447/6/1 448/5/1
f 449/1/1 450/2/1 451/3/1 452/4/1
f 453/24/1 454/23/1 455/6/1 456/5/1
f 457/23/1 458/27/1 459/9/1 460/6/1
f 461/1/1 462/2/1 463/3/1 464/4/1
f 465/1/1 466/2/1 467/3/1 468/4/1
f 469/1/1 470/2/1 471/3/1 472/4/1
f 473/1/1 474/2/1 475/3/1 476/4/1
f 477/16/1 478/19/1 479/20/1 480/17/1
f 481/1/1 482/2/1 483/3/1 484/4/1
f 485/1/1 486/2/1 487/3/1 488/4/1
f 489/1/1 490/2/1 491/3/1 492/4/1
f 493/1/1 494/2/1 495/3/1 496/4/1
f 497/1/1 498/2/1 499/3/1 500/4/1
f 501/1/1 502/2/1 503/3/1 504/4/1
f 505/1/1 506/2/1 507/3/1 508/4/1
f 509/1/1 510/2/1 511/3/1 512/4/1
f 513/16/1 514/19/1 515/20/1 516/17/1
f 517/12/1 518/15/1 519/18/1 520/13/1
f 521/12/1 522/15/1 523/18/1 524/13/1
f 525/4/1 526/3/1 527/25/1 528/26/1

